<svg width="34" height="31" viewBox="0 0 34 31" fill="none" xmlns="http://www.w3.org/2000/svg">
<g filter="url(#filter0_d_85_143)">
<path d="M17.0914 9.51809e-07C9.9965 -0.00254085 4.25 5.08615 4.25 11.3669C4.25 16.3336 7.84479 20.5556 12.8511 22.1061C13.5253 22.256 13.422 21.8315 13.422 21.5418V19.5719C9.52886 19.976 9.37107 17.6935 9.11 17.3122C8.58211 16.5141 7.33412 16.3108 7.70708 15.9295C8.59358 15.5253 9.4973 16.0312 10.5445 17.4012C11.3019 18.395 12.7794 18.2273 13.5282 18.0621C13.6917 17.4647 14.0417 16.931 14.5237 16.5166C10.49 15.8761 8.80876 13.6952 8.80876 11.1026C8.80876 9.8444 9.27639 8.68788 10.1945 7.75504C9.60919 6.21725 10.249 4.9006 10.335 4.70488C12.0019 4.5727 13.7347 5.76227 13.8696 5.85632C14.8163 5.6301 15.8979 5.51063 17.1086 5.51063C18.3251 5.51063 19.4095 5.63518 20.3649 5.86394C20.6891 5.64535 22.2957 4.62354 23.8449 4.74809C23.9281 4.94381 24.5535 6.22996 24.0027 7.74742C24.9322 8.6828 25.4056 9.84949 25.4056 11.1102C25.4056 13.7079 23.7129 15.8914 19.6677 16.5217C20.0142 16.8236 20.2893 17.1836 20.477 17.5808C20.6647 17.9779 20.7611 18.4042 20.7608 18.8348V21.6943C20.7837 21.9231 20.7608 22.1493 21.1911 22.1493C26.272 20.6318 29.9299 16.3794 29.9299 11.3695C29.9299 5.08615 24.1806 9.51809e-07 17.0914 9.51809e-07Z" fill="black"/>
</g>
<defs>
<filter id="filter0_d_85_143" x="0.25" y="0" width="33.6799" height="30.1494" filterUnits="userSpaceOnUse" color-interpolation-filters="sRGB">
<feFlood flood-opacity="0" result="BackgroundImageFix"/>
<feColorMatrix in="SourceAlpha" type="matrix" values="0 0 0 0 0 0 0 0 0 0 0 0 0 0 0 0 0 0 127 0" result="hardAlpha"/>
<feOffset dy="4"/>
<feGaussianBlur stdDeviation="2"/>
<feComposite in2="hardAlpha" operator="out"/>
<feColorMatrix type="matrix" values="0 0 0 0 0 0 0 0 0 0 0 0 0 0 0 0 0 0 0.25 0"/>
<feBlend mode="normal" in2="BackgroundImageFix" result="effect1_dropShadow_85_143"/>
<feBlend mode="normal" in="SourceGraphic" in2="effect1_dropShadow_85_143" result="shape"/>
</filter>
</defs>
</svg>
