<svg width="54" height="54" viewBox="0 0 54 54" fill="none" xmlns="http://www.w3.org/2000/svg">
<path d="M52 28.3371L28.5385 39.1448C28.0374 39.3733 27.4931 39.4916 26.9423 39.4916C26.3916 39.4916 25.8472 39.3733 25.3462 39.1448L2 28.3371M52 40.8371L28.5385 51.6448C28.0374 51.8733 27.4931 51.9916 26.9423 51.9916C26.3916 51.9916 25.8472 51.8733 25.3462 51.6448L2 40.8371M28.8077 26.6063C28.2372 26.854 27.6219 26.9819 27 26.9819C26.3781 26.9819 25.7628 26.854 25.1923 26.6063L3.26923 16.4525C2.91324 16.2729 2.61407 15.9981 2.40504 15.6585C2.19602 15.319 2.08535 14.9281 2.08535 14.5294C2.08535 14.1307 2.19602 13.7398 2.40504 13.4003C2.61407 13.0607 2.91324 12.7859 3.26923 12.6063L25.1923 2.37554C25.7628 2.12783 26.3781 2 27 2C27.6219 2 28.2372 2.12783 28.8077 2.37554L50.7308 12.5294C51.0868 12.7089 51.3859 12.9838 51.595 13.3233C51.804 13.6629 51.9147 14.0538 51.9147 14.4525C51.9147 14.8512 51.804 15.2421 51.595 15.5816C51.3859 15.9211 51.0868 16.196 50.7308 16.3755L28.8077 26.6063Z" stroke="white" stroke-width="3" stroke-linecap="round" stroke-linejoin="round"/>
</svg>
