<svg width="34" height="31" viewBox="0 0 34 31" fill="none" xmlns="http://www.w3.org/2000/svg">
<g filter="url(#filter0_d_85_138)">
<path fill-rule="evenodd" clip-rule="evenodd" d="M16.7501 6.04053C15.2431 6.04053 13.798 6.57089 12.7324 7.51493C11.6669 8.45897 11.0682 9.73937 11.0682 11.0745C11.0682 12.4095 11.6669 13.6899 12.7324 14.634C13.798 15.578 15.2431 16.1084 16.7501 16.1084C18.257 16.1084 19.7022 15.578 20.7677 14.634C21.8333 13.6899 22.4319 12.4095 22.4319 11.0745C22.4319 9.73937 21.8333 8.45897 20.7677 7.51493C19.7022 6.57089 18.257 6.04053 16.7501 6.04053ZM13.341 11.0745C13.341 11.8755 13.7001 12.6437 14.3395 13.2102C14.9788 13.7766 15.8459 14.0948 16.7501 14.0948C17.6542 14.0948 18.5213 13.7766 19.1606 13.2102C19.8 12.6437 20.1591 11.8755 20.1591 11.0745C20.1591 10.2734 19.8 9.50517 19.1606 8.93874C18.5213 8.37231 17.6542 8.0541 16.7501 8.0541C15.8459 8.0541 14.9788 8.37231 14.3395 8.93874C13.7001 9.50517 13.341 10.2734 13.341 11.0745Z" fill="black"/>
<path d="M23.5681 4.02734C23.2667 4.02734 22.9777 4.13342 22.7646 4.32222C22.5515 4.51103 22.4318 4.76711 22.4318 5.03413C22.4318 5.30114 22.5515 5.55722 22.7646 5.74603C22.9777 5.93484 23.2667 6.04091 23.5681 6.04091C23.8695 6.04091 24.1585 5.93484 24.3717 5.74603C24.5848 5.55722 24.7045 5.30114 24.7045 5.03413C24.7045 4.76711 24.5848 4.51103 24.3717 4.32222C24.1585 4.13342 23.8695 4.02734 23.5681 4.02734Z" fill="black"/>
<path fill-rule="evenodd" clip-rule="evenodd" d="M8.79545 0C7.58992 0 6.43377 0.424287 5.58133 1.17952C4.72889 1.93476 4.25 2.95908 4.25 4.02714V18.1221C4.25 19.1902 4.72889 20.2145 5.58133 20.9698C6.43377 21.725 7.58992 22.1493 8.79545 22.1493H24.7045C25.9101 22.1493 27.0662 21.725 27.9187 20.9698C28.7711 20.2145 29.25 19.1902 29.25 18.1221V4.02714C29.25 2.95908 28.7711 1.93476 27.9187 1.17952C27.0662 0.424287 25.9101 0 24.7045 0H8.79545ZM24.7045 2.01357H8.79545C8.19269 2.01357 7.61461 2.22571 7.18839 2.60333C6.76217 2.98095 6.52273 3.49311 6.52273 4.02714V18.1221C6.52273 18.6562 6.76217 19.1683 7.18839 19.5459C7.61461 19.9236 8.19269 20.1357 8.79545 20.1357H24.7045C25.3073 20.1357 25.8854 19.9236 26.3116 19.5459C26.7378 19.1683 26.9773 18.6562 26.9773 18.1221V4.02714C26.9773 3.49311 26.7378 2.98095 26.3116 2.60333C25.8854 2.22571 25.3073 2.01357 24.7045 2.01357Z" fill="black"/>
</g>
<defs>
<filter id="filter0_d_85_138" x="0.25" y="0" width="33" height="30.1494" filterUnits="userSpaceOnUse" color-interpolation-filters="sRGB">
<feFlood flood-opacity="0" result="BackgroundImageFix"/>
<feColorMatrix in="SourceAlpha" type="matrix" values="0 0 0 0 0 0 0 0 0 0 0 0 0 0 0 0 0 0 127 0" result="hardAlpha"/>
<feOffset dy="4"/>
<feGaussianBlur stdDeviation="2"/>
<feComposite in2="hardAlpha" operator="out"/>
<feColorMatrix type="matrix" values="0 0 0 0 0 0 0 0 0 0 0 0 0 0 0 0 0 0 0.25 0"/>
<feBlend mode="normal" in2="BackgroundImageFix" result="effect1_dropShadow_85_138"/>
<feBlend mode="normal" in="SourceGraphic" in2="effect1_dropShadow_85_138" result="shape"/>
</filter>
</defs>
</svg>
