<svg width="37" height="32" viewBox="0 0 37 32" fill="none" xmlns="http://www.w3.org/2000/svg">
<g filter="url(#filter0_d_85_152)">
<path d="M31.8432 1.73784L32.8047 1.68162C32.7923 1.51437 32.7244 1.35411 32.6096 1.22089C32.4948 1.08767 32.3382 0.987406 32.1594 0.932661C31.9806 0.877916 31.7875 0.871118 31.6044 0.913118C31.4212 0.955119 31.2561 1.04405 31.1298 1.16878L31.8432 1.73784ZM30.8855 6.77931C30.8855 6.55337 30.7842 6.33669 30.6039 6.17693C30.4236 6.01717 30.179 5.92742 29.924 5.92742C29.669 5.92742 29.4244 6.01717 29.2441 6.17693C29.0638 6.33669 28.9625 6.55337 28.9625 6.77931H30.8855ZM4.96271 20.4794V19.6275C4.75625 19.6272 4.55519 19.6859 4.38927 19.7948C4.22336 19.9036 4.1014 20.0569 4.04144 20.232C3.98148 20.407 3.98671 20.5945 4.05634 20.7667C4.12597 20.9389 4.25632 21.0866 4.4281 21.1881L4.96271 20.4794ZM6.88192 1.73784L7.78383 1.43968C7.71829 1.28414 7.60288 1.14896 7.45178 1.05075C7.30068 0.952545 7.12049 0.895598 6.93335 0.88691C6.74621 0.878221 6.56028 0.918171 6.39843 1.00185C6.23657 1.08552 6.10584 1.20928 6.02231 1.3579L6.88192 1.73784ZM14.5626 17.0718L15.2434 17.6732C15.3589 17.5706 15.4429 17.4435 15.4875 17.3041C15.5321 17.1646 15.5358 17.0174 15.4983 16.8763C15.4607 16.7352 15.3832 16.605 15.2729 16.4979C15.1627 16.3908 15.0235 16.3103 14.8684 16.2642L14.5626 17.0718ZM28.4548 3.39561L27.7433 3.96808L28.0894 4.30713L28.599 4.23898L28.4548 3.39561ZM30.8855 1.79407C30.9836 3.1196 30.8913 3.92378 30.649 4.53033C30.4144 5.11813 30.0028 5.602 29.2586 6.2341L30.5894 7.46423C31.4317 6.74864 32.0817 6.04669 32.4624 5.09939C32.8336 4.16913 32.9105 3.09234 32.8047 1.68162L30.8855 1.79407ZM30.8855 8.01965V6.77931H28.9625V8.02136H30.8855V8.01965ZM17.4434 6.91902V8.55294H19.3664V6.91902H17.4434ZM17.4434 8.55294V9.40482H19.3664V8.55294H17.4434ZM24.2414 0.885955C23.3476 0.886402 22.4627 1.04281 21.6372 1.34624C20.8117 1.64967 20.0617 2.09419 19.4301 2.65441C18.7985 3.21463 18.2976 3.87959 17.9561 4.61131C17.6145 5.34303 17.439 6.12719 17.4395 6.91902H19.3626C19.3621 6.35079 19.4879 5.78804 19.7329 5.26292C19.978 4.7378 20.3374 4.26059 20.7906 3.85856C21.2439 3.45652 21.7821 3.13754 22.3745 2.91983C22.9669 2.70212 23.6019 2.58995 24.2433 2.58973V0.885955H24.2414ZM28.9605 8.01965C28.9625 15.3731 22.2452 21.3312 13.9626 21.3312V23.035C23.3087 23.035 30.8855 16.3119 30.8855 8.01965H28.9605ZM5.98193 2.036C7.02807 4.50988 10.9511 9.40482 18.4049 9.40482V7.70105C12.028 7.70105 8.6569 3.50977 7.78191 1.43968L5.98193 2.036ZM6.02231 1.3579C4.00887 4.92901 3.69926 8.39449 5.16271 11.3454C6.62231 14.2878 9.76266 16.5504 14.2588 17.8794L14.8684 16.2642C10.7242 15.0375 8.10306 13.0407 6.9223 10.6588C5.74539 8.28544 5.91654 5.36006 7.74345 2.11778L6.02231 1.3579ZM13.8819 16.4704C12.7242 17.4977 9.24343 19.6275 4.96271 19.6275V21.3312C9.89727 21.3312 13.8415 18.9187 15.2434 17.6732L13.8819 16.4704ZM29.1682 2.82485C28.5465 2.21397 27.7868 1.72568 26.9384 1.39166C26.0899 1.05765 25.1717 0.885351 24.2433 0.885955V2.58973C25.6298 2.58973 26.8779 3.1196 27.7433 3.96808L29.1682 2.82485ZM28.599 4.23898C30.1308 4.01726 31.5297 3.33499 32.5605 2.3069L31.1298 1.16878C30.3966 1.90266 29.4015 2.39158 28.3106 2.55395L28.599 4.23898ZM4.4281 21.1881C7.58384 23.0521 10.8915 23.035 13.9626 23.035V21.3312C10.828 21.3312 8.10114 21.3125 5.49732 19.7706L4.4281 21.1881Z" fill="black"/>
</g>
<defs>
<filter id="filter0_d_85_152" x="0" y="0.885742" width="36.8484" height="30.1494" filterUnits="userSpaceOnUse" color-interpolation-filters="sRGB">
<feFlood flood-opacity="0" result="BackgroundImageFix"/>
<feColorMatrix in="SourceAlpha" type="matrix" values="0 0 0 0 0 0 0 0 0 0 0 0 0 0 0 0 0 0 127 0" result="hardAlpha"/>
<feOffset dy="4"/>
<feGaussianBlur stdDeviation="2"/>
<feComposite in2="hardAlpha" operator="out"/>
<feColorMatrix type="matrix" values="0 0 0 0 0 0 0 0 0 0 0 0 0 0 0 0 0 0 0.25 0"/>
<feBlend mode="normal" in2="BackgroundImageFix" result="effect1_dropShadow_85_152"/>
<feBlend mode="normal" in="SourceGraphic" in2="effect1_dropShadow_85_152" result="shape"/>
</filter>
</defs>
</svg>
