<svg width="50" height="50" viewBox="0 0 50 50" fill="none" xmlns="http://www.w3.org/2000/svg">
<path d="M28.125 3.125C28.125 2.2962 27.7958 1.50134 27.2097 0.915291C26.6237 0.32924 25.8288 0 25 0C24.1712 0 23.3763 0.32924 22.7903 0.915291C22.2042 1.50134 21.875 2.2962 21.875 3.125V6.25C21.875 7.0788 22.2042 7.87366 22.7903 8.45971C23.3763 9.04576 24.1712 9.375 25 9.375C25.8288 9.375 26.6237 9.04576 27.2097 8.45971C27.7958 7.87366 28.125 7.0788 28.125 6.25V3.125ZM42.6781 11.7406C43.2474 11.1512 43.5623 10.3619 43.5552 9.5425C43.5481 8.72313 43.2195 7.93934 42.6401 7.35994C42.0607 6.78054 41.2769 6.45189 40.4575 6.44477C39.6381 6.43765 38.8488 6.75263 38.2594 7.32187L36.05 9.53125C35.4808 10.1206 35.1658 10.91 35.1729 11.7294C35.18 12.5487 35.5087 13.3325 36.0881 13.9119C36.6675 14.4913 37.4513 14.82 38.2706 14.8271C39.09 14.8342 39.8794 14.5192 40.4687 13.95L42.6781 11.7406ZM50 25C50 25.8288 49.6708 26.6237 49.0847 27.2097C48.4987 27.7958 47.7038 28.125 46.875 28.125H43.75C42.9212 28.125 42.1263 27.7958 41.5403 27.2097C40.9542 26.6237 40.625 25.8288 40.625 25C40.625 24.1712 40.9542 23.3763 41.5403 22.7903C42.1263 22.2042 42.9212 21.875 43.75 21.875H46.875C47.7038 21.875 48.4987 22.2042 49.0847 22.7903C49.6708 23.3763 50 24.1712 50 25ZM9.53125 13.95C9.81952 14.2485 10.1643 14.4865 10.5456 14.6503C10.9269 14.8141 11.3369 14.9003 11.7519 14.9039C12.1668 14.9075 12.5783 14.8284 12.9624 14.6713C13.3464 14.5142 13.6953 14.2821 13.9887 13.9887C14.2821 13.6953 14.5142 13.3464 14.6713 12.9624C14.8284 12.5783 14.9075 12.1668 14.9039 11.7519C14.9003 11.3369 14.8141 10.9269 14.6503 10.5456C14.4865 10.1643 14.2485 9.81952 13.95 9.53125L11.7406 7.32187C11.1512 6.75263 10.3619 6.43765 9.5425 6.44477C8.72313 6.45189 7.93934 6.78054 7.35994 7.35994C6.78054 7.93934 6.45189 8.72313 6.44477 9.5425C6.43765 10.3619 6.75263 11.1512 7.32187 11.7406L9.53125 13.95ZM9.375 25C9.375 25.8288 9.04576 26.6237 8.45971 27.2097C7.87366 27.7958 7.0788 28.125 6.25 28.125H3.125C2.2962 28.125 1.50134 27.7958 0.915291 27.2097C0.32924 26.6237 0 25.8288 0 25C0 24.1712 0.32924 23.3763 0.915291 22.7903C1.50134 22.2042 2.2962 21.875 3.125 21.875H6.25C7.0788 21.875 7.87366 22.2042 8.45971 22.7903C9.04576 23.3763 9.375 24.1712 9.375 25ZM18.75 43.75V40.625H31.25V43.75C31.25 45.4076 30.5915 46.9973 29.4194 48.1694C28.2473 49.3415 26.6576 50 25 50C23.3424 50 21.7527 49.3415 20.5806 48.1694C19.4085 46.9973 18.75 45.4076 18.75 43.75ZM31.25 37.5C31.2969 36.4375 31.9 35.4812 32.7406 34.8156C34.7803 33.2071 36.2681 31.003 36.9973 28.5099C37.7266 26.0167 37.661 23.3583 36.8097 20.9042C35.9584 18.45 34.3637 16.322 32.2472 14.816C30.1307 13.31 27.5976 12.5007 25 12.5007C22.4024 12.5007 19.8693 13.31 17.7528 14.816C15.6363 16.322 14.0416 18.45 13.1903 20.9042C12.339 23.3583 12.2734 26.0167 13.0027 28.5099C13.7319 31.003 15.2197 33.2071 17.2594 34.8156C18.1031 35.4812 18.7031 36.4375 18.7469 37.5H31.2531H31.25Z" fill="white"/>
</svg>
