<svg width="35" height="33" viewBox="0 0 35 33" fill="none" xmlns="http://www.w3.org/2000/svg">
<g filter="url(#filter0_d_85_161)">
<path d="M12.1429 9.7015V17.612M22.8571 17.612V13.6567C22.8571 12.8175 22.4809 12.0127 21.8111 11.4193C21.1413 10.8259 20.2329 10.4925 19.2857 10.4925C18.3385 10.4925 17.4301 10.8259 16.7603 11.4193C16.0906 12.0127 15.7143 12.8175 15.7143 13.6567V17.612V9.7015M11.25 7.32836H13.0357M6.78571 1H28.2143C28.6879 1 29.1421 1.16668 29.477 1.46338C29.8119 1.76008 30 2.16249 30 2.58209V21.5672C30 21.9868 29.8119 22.3892 29.477 22.6859C29.1421 22.9826 28.6879 23.1493 28.2143 23.1493H6.78571C6.31211 23.1493 5.85791 22.9826 5.52302 22.6859C5.18814 22.3892 5 21.9868 5 21.5672V2.58209C5 2.16249 5.18814 1.76008 5.52302 1.46338C5.85791 1.16668 6.31211 1 6.78571 1Z" stroke="black" stroke-width="2" shape-rendering="crispEdges"/>
</g>
<defs>
<filter id="filter0_d_85_161" x="0" y="0" width="35" height="32.1494" filterUnits="userSpaceOnUse" color-interpolation-filters="sRGB">
<feFlood flood-opacity="0" result="BackgroundImageFix"/>
<feColorMatrix in="SourceAlpha" type="matrix" values="0 0 0 0 0 0 0 0 0 0 0 0 0 0 0 0 0 0 127 0" result="hardAlpha"/>
<feOffset dy="4"/>
<feGaussianBlur stdDeviation="2"/>
<feComposite in2="hardAlpha" operator="out"/>
<feColorMatrix type="matrix" values="0 0 0 0 0 0 0 0 0 0 0 0 0 0 0 0 0 0 0.25 0"/>
<feBlend mode="normal" in2="BackgroundImageFix" result="effect1_dropShadow_85_161"/>
<feBlend mode="normal" in="SourceGraphic" in2="effect1_dropShadow_85_161" result="shape"/>
</filter>
</defs>
</svg>
