<svg width="50" height="50" viewBox="0 0 50 50" fill="none" xmlns="http://www.w3.org/2000/svg">
<path d="M42.8571 0H50V7.14286H42.8571V0ZM42.8571 10.7143H50V17.8571H42.8571V10.7143ZM32.1428 0H39.2857V7.14286H32.1428V0ZM32.1428 10.7143H39.2857V17.8571H32.1428V10.7143Z" fill="white"/>
<path d="M46.4286 25.0001V35.7144H3.57143V7.14296H25V3.57153H3.57143C2.62423 3.57153 1.71582 3.94781 1.04605 4.61758C0.376274 5.28735 0 6.19576 0 7.14296V35.7144C0 36.6616 0.376274 37.57 1.04605 38.2398C1.71582 38.9095 2.62423 39.2858 3.57143 39.2858H17.8571V46.4287H10.7143V50.0001H39.2857V46.4287H32.1429V39.2858H46.4286C47.3758 39.2858 48.2842 38.9095 48.954 38.2398C49.6237 37.57 50 36.6616 50 35.7144V25.0001H46.4286ZM28.5714 46.4287H21.4286V39.2858H28.5714V46.4287Z" fill="white"/>
</svg>
